<?xml version="1.0" encoding="UTF-8" standalone="no"?>
<!DOCTYPE svg PUBLIC "-//W3C//DTD SVG 1.1//EN"
 "http://www.w3.org/Graphics/SVG/1.1/DTD/svg11.dtd">
<!-- Generated by graphviz version 2.42.4 (0)
 -->
<!-- Title: ArquitecturaLimpiaCapas Pages: 1 -->
<svg width="2439pt" height="944pt"
 viewBox="0.00 0.00 2439.00 943.62" xmlns="http://www.w3.org/2000/svg" xmlns:xlink="http://www.w3.org/1999/xlink">
<g id="graph0" class="graph" transform="scale(1 1) rotate(0) translate(36 907.62)">
<title>ArquitecturaLimpiaCapas</title>
<polygon fill="#f8f9fa" stroke="transparent" points="-36,36 -36,-907.62 2403,-907.62 2403,36 -36,36"/>
<text text-anchor="start" x="1012" y="-855.82" font-family="Arial, sans-serif" font-weight="bold" font-size="16.00">Arquitectura Limpia &#45; Capas &amp; Dependencias</text>
<text text-anchor="start" x="1061.5" y="-839.82" font-family="Arial, sans-serif" font-size="16.00"> &#160;&#160;&#160;</text>
<text text-anchor="start" x="1080.5" y="-839.82" font-family="Arial, sans-serif" font-style="italic" font-size="16.00">Estructura del Proyecto NestJS</text>
<text text-anchor="start" x="1024.5" y="-823.82" font-family="Arial, sans-serif" font-size="16.00"> &#160;&#160;&#160;</text>
<text text-anchor="start" x="1043.5" y="-823.82" font-family="Arial, sans-serif" font-size="10.00">Las dependencias fluyen solo hacia adentro (Regla de Dependencia)</text>
<g id="clust1" class="cluster">
<title>cluster_presentation</title>
<polygon fill="#e3f2fd" stroke="#1976d2" points="1747,-659.12 1747,-793.12 2062,-793.12 2062,-659.12 1747,-659.12"/>
<text text-anchor="middle" x="1850" y="-777.92" font-family="Arial, sans-serif" font-size="14.00" fill="#1976d2">🌐 CAPA DE PRESENTACIÓN</text>
<text text-anchor="middle" x="1850" y="-762.92" font-family="Arial, sans-serif" font-size="14.00" fill="#1976d2">(Adaptadores &#45; API)</text>
</g>
<g id="clust2" class="cluster">
<title>cluster_application</title>
<polygon fill="#e8f5e8" stroke="#388e3c" points="984,-477.12 984,-606.12 2359,-606.12 2359,-477.12 984,-477.12"/>
<text text-anchor="middle" x="1074.5" y="-590.92" font-family="Arial, sans-serif" font-size="14.00" fill="#388e3c">🏢 CAPA DE APLICACIÓN</text>
<text text-anchor="middle" x="1074.5" y="-575.92" font-family="Arial, sans-serif" font-size="14.00" fill="#388e3c">(Casos de Uso y DTOs)</text>
</g>
<g id="clust3" class="cluster">
<title>cluster_usecases</title>
<polygon fill="#c8e6c9" stroke="#2e7d32" points="1657,-485.12 1657,-560.12 2351,-560.12 2351,-485.12 1657,-485.12"/>
<text text-anchor="middle" x="1707.5" y="-544.92" font-family="Arial, sans-serif" font-size="14.00" fill="#388e3c">Casos de Uso</text>
</g>
<g id="clust4" class="cluster">
<title>cluster_dtos</title>
<polygon fill="#c8e6c9" stroke="#2e7d32" points="992,-485.12 992,-560.12 1615,-560.12 1615,-485.12 992,-485.12"/>
<text text-anchor="middle" x="1101" y="-544.92" font-family="Arial, sans-serif" font-size="14.00" fill="#388e3c">DTOs (Objetos de Transferencia)</text>
</g>
<g id="clust5" class="cluster">
<title>cluster_domain</title>
<polygon fill="#fff3e0" stroke="#f57c00" points="928,-8 928,-410.25 1991,-410.25 1991,-8 928,-8"/>
<text text-anchor="middle" x="1020.5" y="-395.05" font-family="Arial, sans-serif" font-size="14.00" fill="#f57c00">⚡ CAPA DE DOMINIO</text>
<text text-anchor="middle" x="1020.5" y="-380.05" font-family="Arial, sans-serif" font-size="14.00" fill="#f57c00">(Lógica de Negocio Central)</text>
</g>
<g id="clust6" class="cluster">
<title>cluster_entities</title>
<polygon fill="#ffe0b2" stroke="#ef6c00" points="1290,-218.62 1290,-326.62 1575,-326.62 1575,-218.62 1290,-218.62"/>
<text text-anchor="middle" x="1328.5" y="-311.42" font-family="Arial, sans-serif" font-size="14.00" fill="#f57c00">Entidades</text>
</g>
<g id="clust7" class="cluster">
<title>cluster_valueobjects</title>
<polygon fill="#ffe0b2" stroke="#ef6c00" points="1337,-16 1337,-124 1549,-124 1549,-16 1337,-16"/>
<text text-anchor="middle" x="1395.5" y="-108.8" font-family="Arial, sans-serif" font-size="14.00" fill="#f57c00">Objetos de Valor</text>
</g>
<g id="clust8" class="cluster">
<title>cluster_repositories</title>
<polygon fill="#ffe0b2" stroke="#ef6c00" points="1617,-181 1617,-364.25 1983,-364.25 1983,-181 1617,-181"/>
<text text-anchor="middle" x="1700.5" y="-349.05" font-family="Arial, sans-serif" font-size="14.00" fill="#f57c00">Interfaces de Repositorio</text>
</g>
<g id="clust9" class="cluster">
<title>cluster_events</title>
<polygon fill="#ffe0b2" stroke="#ef6c00" points="1116,-27 1116,-326.62 1254,-326.62 1254,-27 1116,-27"/>
<text text-anchor="middle" x="1185" y="-311.42" font-family="Arial, sans-serif" font-size="14.00" fill="#f57c00">Eventos de Dominio</text>
</g>
<g id="clust10" class="cluster">
<title>cluster_infrastructure</title>
<polygon fill="#f3e5f5" stroke="#7b1fa2" points="8,-221.62 8,-807.62 426,-807.62 426,-221.62 8,-221.62"/>
<text text-anchor="middle" x="124" y="-792.42" font-family="Arial, sans-serif" font-size="14.00" fill="#7b1fa2">🔧 CAPA DE INFRAESTRUCTURA</text>
<text text-anchor="middle" x="124" y="-777.42" font-family="Arial, sans-serif" font-size="14.00" fill="#7b1fa2">(Adaptadores &#45; Base de Datos)</text>
</g>
<g id="clust11" class="cluster">
<title>cluster_db</title>
<polygon fill="#e1bee7" stroke="#6a1b9a" points="16,-675.62 16,-761.62 418,-761.62 418,-675.62 16,-675.62"/>
<text text-anchor="middle" x="118" y="-746.42" font-family="Arial, sans-serif" font-size="14.00" fill="#7b1fa2">Adaptadores de Base de Datos</text>
</g>
<g id="clust12" class="cluster">
<title>cluster_mappers</title>
<polygon fill="#e1bee7" stroke="#6a1b9a" points="82,-474.12 82,-571.12 355,-571.12 355,-474.12 82,-474.12"/>
<text text-anchor="middle" x="128" y="-555.92" font-family="Arial, sans-serif" font-size="14.00" fill="#7b1fa2">Mapeadores</text>
</g>
<g id="clust13" class="cluster">
<title>cluster_entities_db</title>
<polygon fill="#e1bee7" stroke="#6a1b9a" points="16,-229.62 16,-315.62 321,-315.62 321,-229.62 16,-229.62"/>
<text text-anchor="middle" x="110" y="-300.42" font-family="Arial, sans-serif" font-size="14.00" fill="#7b1fa2">Entidades de Base de Datos</text>
</g>
<g id="clust14" class="cluster">
<title>cluster_external</title>
<polygon fill="#e8eaf6" stroke="#3f51b5" points="736,-463.25 736,-597 976,-597 976,-463.25 736,-463.25"/>
<text text-anchor="middle" x="856" y="-581.8" font-family="Arial, sans-serif" font-size="14.00" fill="#3f51b5">🗄️ CAPA EXTERNA</text>
<text text-anchor="middle" x="856" y="-566.8" font-family="Arial, sans-serif" font-size="14.00" fill="#3f51b5">(Base de Datos y Servicios Externos)</text>
</g>
<!-- ProductController -->
<g id="node1" class="node">
<title>ProductController</title>
<polygon fill="#bbdefb" stroke="#1565c0" points="2053.5,-747.12 1930.5,-747.12 1930.5,-667.12 2053.5,-667.12 2053.5,-747.12"/>
<text text-anchor="middle" x="1992" y="-732.12" font-family="Arial, sans-serif" font-size="10.00">ControladorProducto</text>
<text text-anchor="middle" x="1992" y="-721.12" font-family="Arial, sans-serif" font-size="10.00">• POST /productos</text>
<text text-anchor="middle" x="1992" y="-710.12" font-family="Arial, sans-serif" font-size="10.00">• GET /productos</text>
<text text-anchor="middle" x="1992" y="-699.12" font-family="Arial, sans-serif" font-size="10.00">• PUT /productos/:id</text>
<text text-anchor="middle" x="1992" y="-688.12" font-family="Arial, sans-serif" font-size="10.00">• PATCH /stock</text>
<text text-anchor="middle" x="1992" y="-677.12" font-family="Arial, sans-serif" font-size="10.00">• DELETE /productos/:id</text>
</g>
<!-- CrearProducto -->
<g id="node3" class="node">
<title>CrearProducto</title>
<polygon fill="#a5d6a7" stroke="black" points="2188,-529.12 2110,-529.12 2110,-493.12 2188,-493.12 2188,-529.12"/>
<text text-anchor="middle" x="2149" y="-508.62" font-family="Arial, sans-serif" font-size="10.00">CrearProducto</text>
</g>
<!-- ProductController&#45;&gt;CrearProducto -->
<g id="edge1" class="edge">
<title>ProductController&#45;&gt;CrearProducto</title>
<path fill="none" stroke="#1976d2" d="M2028.46,-667.02C2044.94,-648.87 2064.41,-626.78 2081,-606.12 2099.16,-583.52 2118.4,-556.61 2131.76,-537.39"/>
<polygon fill="#1976d2" stroke="#1976d2" points="2134.65,-539.36 2137.46,-529.14 2128.89,-535.38 2134.65,-539.36"/>
<text text-anchor="middle" x="2085.5" y="-616.92" font-family="Arial, sans-serif" font-size="9.00">llama</text>
</g>
<!-- ObtenerTodosProductos -->
<g id="node4" class="node">
<title>ObtenerTodosProductos</title>
<polygon fill="#a5d6a7" stroke="black" points="2052,-529.12 1932,-529.12 1932,-493.12 2052,-493.12 2052,-529.12"/>
<text text-anchor="middle" x="1992" y="-508.62" font-family="Arial, sans-serif" font-size="10.00">ObtenerTodosProductos</text>
</g>
<!-- ProductController&#45;&gt;ObtenerTodosProductos -->
<g id="edge2" class="edge">
<title>ProductController&#45;&gt;ObtenerTodosProductos</title>
<path fill="none" stroke="#1976d2" d="M1992,-666.87C1992,-629.07 1992,-572.87 1992,-539.62"/>
<polygon fill="#1976d2" stroke="#1976d2" points="1995.5,-539.29 1992,-529.29 1988.5,-539.29 1995.5,-539.29"/>
<text text-anchor="middle" x="2003.5" y="-616.92" font-family="Arial, sans-serif" font-size="9.00">llama</text>
</g>
<!-- ActualizarProducto -->
<g id="node5" class="node">
<title>ActualizarProducto</title>
<polygon fill="#a5d6a7" stroke="black" points="2343.5,-529.12 2246.5,-529.12 2246.5,-493.12 2343.5,-493.12 2343.5,-529.12"/>
<text text-anchor="middle" x="2295" y="-508.62" font-family="Arial, sans-serif" font-size="10.00">ActualizarProducto</text>
</g>
<!-- ProductController&#45;&gt;ActualizarProducto -->
<g id="edge3" class="edge">
<title>ProductController&#45;&gt;ActualizarProducto</title>
<path fill="none" stroke="#1976d2" d="M2053.86,-687.3C2101.51,-670.84 2167.42,-643.68 2217,-606.12 2242.15,-587.08 2264.4,-558.43 2278.64,-537.77"/>
<polygon fill="#1976d2" stroke="#1976d2" points="2281.56,-539.7 2284.24,-529.45 2275.75,-535.8 2281.56,-539.7"/>
<text text-anchor="middle" x="2211.5" y="-616.92" font-family="Arial, sans-serif" font-size="9.00">llama</text>
</g>
<!-- ProductoRespuestaDTO -->
<g id="node9" class="node">
<title>ProductoRespuestaDTO</title>
<polygon fill="#81c784" stroke="black" points="1449,-529.12 1327,-529.12 1327,-493.12 1449,-493.12 1449,-529.12"/>
<text text-anchor="middle" x="1388" y="-508.62" font-family="Arial, sans-serif" font-size="10.00">ProductoRespuestaDTO</text>
</g>
<!-- ProductController&#45;&gt;ProductoRespuestaDTO -->
<g id="edge4" class="edge">
<title>ProductController&#45;&gt;ProductoRespuestaDTO</title>
<path fill="none" stroke="#1976d2" d="M1945.34,-666.98C1918.64,-647.1 1883.48,-624.91 1848,-614.12 1808.76,-602.2 1516.58,-622.53 1479,-606.12 1446.66,-592 1420.05,-560.4 1404.13,-537.73"/>
<polygon fill="#1976d2" stroke="#1976d2" points="1406.88,-535.55 1398.37,-529.24 1401.09,-539.48 1406.88,-535.55"/>
<text text-anchor="middle" x="1881" y="-616.92" font-family="Arial, sans-serif" font-size="9.00">usa</text>
</g>
<!-- UserController -->
<g id="node2" class="node">
<title>UserController</title>
<polygon fill="#bbdefb" stroke="#1565c0" points="1872.5,-747.12 1755.5,-747.12 1755.5,-667.12 1872.5,-667.12 1872.5,-747.12"/>
<text text-anchor="middle" x="1814" y="-732.12" font-family="Arial, sans-serif" font-size="10.00">ControladorUsuario</text>
<text text-anchor="middle" x="1814" y="-721.12" font-family="Arial, sans-serif" font-size="10.00">• POST /usuarios</text>
<text text-anchor="middle" x="1814" y="-710.12" font-family="Arial, sans-serif" font-size="10.00">• GET /usuarios</text>
<text text-anchor="middle" x="1814" y="-699.12" font-family="Arial, sans-serif" font-size="10.00">• PUT /usuarios/:id</text>
<text text-anchor="middle" x="1814" y="-688.12" font-family="Arial, sans-serif" font-size="10.00">• PATCH /activar</text>
<text text-anchor="middle" x="1814" y="-677.12" font-family="Arial, sans-serif" font-size="10.00">• DELETE /usuarios/:id</text>
</g>
<!-- CrearUsuario -->
<g id="node6" class="node">
<title>CrearUsuario</title>
<polygon fill="#a5d6a7" stroke="black" points="1874,-529.12 1802,-529.12 1802,-493.12 1874,-493.12 1874,-529.12"/>
<text text-anchor="middle" x="1838" y="-508.62" font-family="Arial, sans-serif" font-size="10.00">CrearUsuario</text>
</g>
<!-- UserController&#45;&gt;CrearUsuario -->
<g id="edge5" class="edge">
<title>UserController&#45;&gt;CrearUsuario</title>
<path fill="none" stroke="#1976d2" d="M1812.61,-667.06C1812.5,-650.66 1812.98,-631.42 1815,-614.12 1818.01,-588.33 1824.84,-559.51 1830.28,-539.1"/>
<polygon fill="#1976d2" stroke="#1976d2" points="1833.71,-539.83 1832.97,-529.26 1826.96,-537.98 1833.71,-539.83"/>
<text text-anchor="middle" x="1826.5" y="-616.92" font-family="Arial, sans-serif" font-size="9.00">llama</text>
</g>
<!-- ActivarUsuario -->
<g id="node7" class="node">
<title>ActivarUsuario</title>
<polygon fill="#a5d6a7" stroke="black" points="1743.5,-529.12 1664.5,-529.12 1664.5,-493.12 1743.5,-493.12 1743.5,-529.12"/>
<text text-anchor="middle" x="1704" y="-508.62" font-family="Arial, sans-serif" font-size="10.00">ActivarUsuario</text>
</g>
<!-- UserController&#45;&gt;ActivarUsuario -->
<g id="edge6" class="edge">
<title>UserController&#45;&gt;ActivarUsuario</title>
<path fill="none" stroke="#1976d2" d="M1791.74,-666.87C1770.03,-628.57 1737.61,-571.4 1718.86,-538.34"/>
<polygon fill="#1976d2" stroke="#1976d2" points="1721.71,-536.26 1713.73,-529.29 1715.62,-539.71 1721.71,-536.26"/>
<text text-anchor="middle" x="1776.5" y="-616.92" font-family="Arial, sans-serif" font-size="9.00">llama</text>
</g>
<!-- UsuarioRespuestaDTO -->
<g id="node11" class="node">
<title>UsuarioRespuestaDTO</title>
<polygon fill="#81c784" stroke="black" points="1117.5,-529.12 1000.5,-529.12 1000.5,-493.12 1117.5,-493.12 1117.5,-529.12"/>
<text text-anchor="middle" x="1059" y="-508.62" font-family="Arial, sans-serif" font-size="10.00">UsuarioRespuestaDTO</text>
</g>
<!-- UserController&#45;&gt;UsuarioRespuestaDTO -->
<g id="edge7" class="edge">
<title>UserController&#45;&gt;UsuarioRespuestaDTO</title>
<path fill="none" stroke="#1976d2" d="M1755.45,-702.28C1613.07,-692.15 1252.67,-661.62 1147,-606.12 1116.6,-590.16 1091,-559.51 1075.38,-537.55"/>
<polygon fill="#1976d2" stroke="#1976d2" points="1078.26,-535.56 1069.7,-529.31 1072.5,-539.53 1078.26,-535.56"/>
<text text-anchor="middle" x="1194" y="-616.92" font-family="Arial, sans-serif" font-size="9.00">usa</text>
</g>
<!-- Producto -->
<g id="node12" class="node">
<title>Producto</title>
<polygon fill="#ffcc02" stroke="black" points="1566.5,-295.62 1461.5,-295.62 1461.5,-226.62 1566.5,-226.62 1566.5,-295.62"/>
<text text-anchor="middle" x="1514" y="-280.62" font-family="Arial, sans-serif" font-size="10.00">Producto</text>
<text text-anchor="middle" x="1514" y="-269.62" font-family="Arial, sans-serif" font-size="10.00">• validarStock()</text>
<text text-anchor="middle" x="1514" y="-258.62" font-family="Arial, sans-serif" font-size="10.00">• actualizarDetalles()</text>
<text text-anchor="middle" x="1514" y="-247.62" font-family="Arial, sans-serif" font-size="10.00">• aumentarStock()</text>
<text text-anchor="middle" x="1514" y="-236.62" font-family="Arial, sans-serif" font-size="10.00">• disminuirStock()</text>
</g>
<!-- CrearProducto&#45;&gt;Producto -->
<g id="edge8" class="edge">
<title>CrearProducto&#45;&gt;Producto</title>
<path fill="none" stroke="#388e3c" d="M2129.22,-493.06C2116.32,-482.84 2098.65,-470.47 2081,-463.25 1973.26,-419.2 1938.76,-430.39 1823,-418.25 1798.67,-415.7 1624.07,-422.68 1603,-410.25 1564.15,-387.33 1540.23,-340.23 1527.11,-305.27"/>
<polygon fill="#388e3c" stroke="#388e3c" points="1530.37,-303.98 1523.69,-295.76 1523.78,-306.35 1530.37,-303.98"/>
<text text-anchor="middle" x="1955.5" y="-421.05" font-family="Arial, sans-serif" font-size="9.00">crea</text>
</g>
<!-- IRepositorioProducto -->
<g id="node16" class="node">
<title>IRepositorioProducto</title>
<ellipse fill="#ffa726" stroke="black" cx="1900" cy="-261.12" rx="74.91" ry="64.19"/>
<text text-anchor="middle" x="1900" y="-291.62" font-family="Arial, sans-serif" font-size="10.00">«interfaz»</text>
<text text-anchor="middle" x="1900" y="-280.62" font-family="Arial, sans-serif" font-size="10.00">IRepositorioProducto</text>
<text text-anchor="middle" x="1900" y="-269.62" font-family="Arial, sans-serif" font-size="10.00">• guardar()</text>
<text text-anchor="middle" x="1900" y="-258.62" font-family="Arial, sans-serif" font-size="10.00">• buscarPorId()</text>
<text text-anchor="middle" x="1900" y="-247.62" font-family="Arial, sans-serif" font-size="10.00">• buscarTodos()</text>
<text text-anchor="middle" x="1900" y="-236.62" font-family="Arial, sans-serif" font-size="10.00">• actualizar()</text>
<text text-anchor="middle" x="1900" y="-225.62" font-family="Arial, sans-serif" font-size="10.00">• eliminar()</text>
</g>
<!-- CrearProducto&#45;&gt;IRepositorioProducto -->
<g id="edge9" class="edge">
<title>CrearProducto&#45;&gt;IRepositorioProducto</title>
<path fill="none" stroke="#388e3c" stroke-dasharray="5,2" d="M2131.89,-493.08C2096.17,-457.5 2012.32,-373.99 1955.86,-317.76"/>
<polygon fill="#388e3c" stroke="#388e3c" points="1958.33,-315.28 1948.77,-310.7 1953.39,-320.24 1958.33,-315.28"/>
<text text-anchor="middle" x="2086" y="-421.05" font-family="Arial, sans-serif" font-size="9.00">depende de</text>
</g>
<!-- Usuario -->
<g id="node13" class="node">
<title>Usuario</title>
<polygon fill="#ffcc02" stroke="black" points="1403.5,-295.62 1298.5,-295.62 1298.5,-226.62 1403.5,-226.62 1403.5,-295.62"/>
<text text-anchor="middle" x="1351" y="-280.62" font-family="Arial, sans-serif" font-size="10.00">Usuario</text>
<text text-anchor="middle" x="1351" y="-269.62" font-family="Arial, sans-serif" font-size="10.00">• validarEmail()</text>
<text text-anchor="middle" x="1351" y="-258.62" font-family="Arial, sans-serif" font-size="10.00">• activar()</text>
<text text-anchor="middle" x="1351" y="-247.62" font-family="Arial, sans-serif" font-size="10.00">• desactivar()</text>
<text text-anchor="middle" x="1351" y="-236.62" font-family="Arial, sans-serif" font-size="10.00">• actualizarDetalles()</text>
</g>
<!-- CrearUsuario&#45;&gt;Usuario -->
<g id="edge10" class="edge">
<title>CrearUsuario&#45;&gt;Usuario</title>
<path fill="none" stroke="#388e3c" d="M1818.47,-493C1806.17,-483.01 1789.53,-470.92 1773,-463.25 1697.8,-428.38 1674,-430.39 1592,-418.25 1574.5,-415.66 1448.01,-419.61 1433,-410.25 1395.77,-387.03 1374.08,-340.53 1362.46,-305.79"/>
<polygon fill="#388e3c" stroke="#388e3c" points="1365.68,-304.35 1359.31,-295.88 1359.01,-306.47 1365.68,-304.35"/>
<text text-anchor="middle" x="1672.5" y="-421.05" font-family="Arial, sans-serif" font-size="9.00">crea</text>
</g>
<!-- IRepositorioUsuario -->
<g id="node17" class="node">
<title>IRepositorioUsuario</title>
<ellipse fill="#ffa726" stroke="black" cx="1696" cy="-261.12" rx="71.34" ry="72.25"/>
<text text-anchor="middle" x="1696" y="-297.12" font-family="Arial, sans-serif" font-size="10.00">«interfaz»</text>
<text text-anchor="middle" x="1696" y="-286.12" font-family="Arial, sans-serif" font-size="10.00">IRepositorioUsuario</text>
<text text-anchor="middle" x="1696" y="-275.12" font-family="Arial, sans-serif" font-size="10.00">• guardar()</text>
<text text-anchor="middle" x="1696" y="-264.12" font-family="Arial, sans-serif" font-size="10.00">• buscarPorId()</text>
<text text-anchor="middle" x="1696" y="-253.12" font-family="Arial, sans-serif" font-size="10.00">• buscarPorEmail()</text>
<text text-anchor="middle" x="1696" y="-242.12" font-family="Arial, sans-serif" font-size="10.00">• buscarTodos()</text>
<text text-anchor="middle" x="1696" y="-231.12" font-family="Arial, sans-serif" font-size="10.00">• actualizar()</text>
<text text-anchor="middle" x="1696" y="-220.12" font-family="Arial, sans-serif" font-size="10.00">• eliminar()</text>
</g>
<!-- CrearUsuario&#45;&gt;IRepositorioUsuario -->
<g id="edge11" class="edge">
<title>CrearUsuario&#45;&gt;IRepositorioUsuario</title>
<path fill="none" stroke="#388e3c" stroke-dasharray="5,2" d="M1818.66,-492.84C1802.14,-477.25 1778.63,-453.04 1763,-428.25 1745.87,-401.07 1731.65,-368.77 1720.78,-339.91"/>
<polygon fill="#388e3c" stroke="#388e3c" points="1723.97,-338.44 1717.23,-330.26 1717.4,-340.86 1723.97,-338.44"/>
<text text-anchor="middle" x="1788" y="-421.05" font-family="Arial, sans-serif" font-size="9.00">depende de</text>
</g>
<!-- CrearProductoDTO -->
<g id="node8" class="node">
<title>CrearProductoDTO</title>
<polygon fill="#81c784" stroke="black" points="1606.5,-529.12 1507.5,-529.12 1507.5,-493.12 1606.5,-493.12 1606.5,-529.12"/>
<text text-anchor="middle" x="1557" y="-508.62" font-family="Arial, sans-serif" font-size="10.00">CrearProductoDTO</text>
</g>
<!-- CrearProductoDTO&#45;&gt;Producto -->
<g id="edge12" class="edge">
<title>CrearProductoDTO&#45;&gt;Producto</title>
<path fill="none" stroke="#388e3c" d="M1554.04,-493.08C1547.42,-454.86 1531.2,-361.31 1521.56,-305.71"/>
<polygon fill="#388e3c" stroke="#388e3c" points="1524.99,-305.04 1519.84,-295.79 1518.1,-306.24 1524.99,-305.04"/>
<text text-anchor="middle" x="1559.5" y="-421.05" font-family="Arial, sans-serif" font-size="9.00">mapea a</text>
</g>
<!-- CrearUsuarioDTO -->
<g id="node10" class="node">
<title>CrearUsuarioDTO</title>
<polygon fill="#81c784" stroke="black" points="1268.5,-529.12 1175.5,-529.12 1175.5,-493.12 1268.5,-493.12 1268.5,-529.12"/>
<text text-anchor="middle" x="1222" y="-508.62" font-family="Arial, sans-serif" font-size="10.00">CrearUsuarioDTO</text>
</g>
<!-- CrearUsuarioDTO&#45;&gt;Usuario -->
<g id="edge13" class="edge">
<title>CrearUsuarioDTO&#45;&gt;Usuario</title>
<path fill="none" stroke="#388e3c" d="M1230.87,-493.08C1250.87,-454.62 1300.01,-360.15 1328.87,-304.67"/>
<polygon fill="#388e3c" stroke="#388e3c" points="1331.98,-306.27 1333.49,-295.79 1325.77,-303.04 1331.98,-306.27"/>
<text text-anchor="middle" x="1285.5" y="-421.05" font-family="Arial, sans-serif" font-size="9.00">mapea a</text>
</g>
<!-- Dinero -->
<g id="node15" class="node">
<title>Dinero</title>
<polygon fill="#ffb74d" stroke="black" points="1541,-93 1469,-93 1469,-24 1541,-24 1541,-93"/>
<text text-anchor="middle" x="1505" y="-78" font-family="Arial, sans-serif" font-size="10.00">Dinero</text>
<text text-anchor="middle" x="1505" y="-67" font-family="Arial, sans-serif" font-size="10.00">• sumar()</text>
<text text-anchor="middle" x="1505" y="-56" font-family="Arial, sans-serif" font-size="10.00">• restar()</text>
<text text-anchor="middle" x="1505" y="-45" font-family="Arial, sans-serif" font-size="10.00">• multiplicar()</text>
<text text-anchor="middle" x="1505" y="-34" font-family="Arial, sans-serif" font-size="10.00">• comparar()</text>
</g>
<!-- Producto&#45;&gt;Dinero -->
<g id="edge15" class="edge">
<title>Producto&#45;&gt;Dinero</title>
<path fill="none" stroke="#f57c00" d="M1512.49,-226.54C1510.98,-192.69 1508.62,-140.29 1506.96,-103.21"/>
<polygon fill="#f57c00" stroke="#f57c00" points="1510.46,-103.02 1506.51,-93.19 1503.46,-103.34 1510.46,-103.02"/>
<text text-anchor="middle" x="1516" y="-138.8" font-family="Arial, sans-serif" font-size="9.00">usa</text>
</g>
<!-- Email -->
<g id="node14" class="node">
<title>Email</title>
<polygon fill="#ffb74d" stroke="black" points="1411,-87.5 1345,-87.5 1345,-29.5 1411,-29.5 1411,-87.5"/>
<text text-anchor="middle" x="1378" y="-72.5" font-family="Arial, sans-serif" font-size="10.00">Email</text>
<text text-anchor="middle" x="1378" y="-61.5" font-family="Arial, sans-serif" font-size="10.00">• validar()</text>
<text text-anchor="middle" x="1378" y="-50.5" font-family="Arial, sans-serif" font-size="10.00">• esIgualA()</text>
<text text-anchor="middle" x="1378" y="-39.5" font-family="Arial, sans-serif" font-size="10.00">• aCadena()</text>
</g>
<!-- Usuario&#45;&gt;Email -->
<g id="edge14" class="edge">
<title>Usuario&#45;&gt;Email</title>
<path fill="none" stroke="#f57c00" d="M1355.52,-226.54C1360.31,-190.96 1367.86,-134.87 1372.87,-97.64"/>
<polygon fill="#f57c00" stroke="#f57c00" points="1376.34,-98.05 1374.21,-87.67 1369.41,-97.12 1376.34,-98.05"/>
<text text-anchor="middle" x="1384" y="-138.8" font-family="Arial, sans-serif" font-size="9.00">contiene</text>
</g>
<!-- EventosDominio -->
<g id="node18" class="node">
<title>EventosDominio</title>
<polygon fill="#ff9800" stroke="black" points="1240.5,-295.62 1129.5,-295.62 1129.5,-226.62 1240.5,-226.62 1240.5,-295.62"/>
<text text-anchor="middle" x="1185" y="-280.62" font-family="Arial, sans-serif" font-size="10.00">Eventos</text>
<text text-anchor="middle" x="1185" y="-269.62" font-family="Arial, sans-serif" font-size="10.00">• ProductoCreado</text>
<text text-anchor="middle" x="1185" y="-258.62" font-family="Arial, sans-serif" font-size="10.00">• ProductoActualizado</text>
<text text-anchor="middle" x="1185" y="-247.62" font-family="Arial, sans-serif" font-size="10.00">• StockCambiado</text>
<text text-anchor="middle" x="1185" y="-236.62" font-family="Arial, sans-serif" font-size="10.00">• UsuarioCreado</text>
</g>
<!-- BusEventos -->
<g id="node19" class="node">
<title>BusEventos</title>
<polygon fill="#ff9800" stroke="black" points="1219,-82 1151,-82 1151,-35 1219,-35 1219,-82"/>
<text text-anchor="middle" x="1185" y="-67" font-family="Arial, sans-serif" font-size="10.00">BusEventos</text>
<text text-anchor="middle" x="1185" y="-56" font-family="Arial, sans-serif" font-size="10.00">• publicar()</text>
<text text-anchor="middle" x="1185" y="-45" font-family="Arial, sans-serif" font-size="10.00">• suscribir()</text>
</g>
<!-- EventosDominio&#45;&gt;BusEventos -->
<g id="edge16" class="edge">
<title>EventosDominio&#45;&gt;BusEventos</title>
<path fill="none" stroke="#f57c00" d="M1185,-226.54C1185,-189.28 1185,-129.54 1185,-92.51"/>
<polygon fill="#f57c00" stroke="#f57c00" points="1188.5,-92.25 1185,-82.25 1181.5,-92.25 1188.5,-92.25"/>
<text text-anchor="middle" x="1213.5" y="-138.8" font-family="Arial, sans-serif" font-size="9.00">publicado por</text>
</g>
<!-- ErroresDominio -->
<g id="node20" class="node">
<title>ErroresDominio</title>
<polygon fill="#ffab91" stroke="black" points="1071.5,-290.12 936.5,-290.12 936.5,-232.12 1071.5,-232.12 1071.5,-290.12"/>
<text text-anchor="middle" x="1004" y="-275.12" font-family="Arial, sans-serif" font-size="10.00">Errores de Dominio</text>
<text text-anchor="middle" x="1004" y="-264.12" font-family="Arial, sans-serif" font-size="10.00">• ErrorValidacion</text>
<text text-anchor="middle" x="1004" y="-253.12" font-family="Arial, sans-serif" font-size="10.00">• EntidadNoEncontrada</text>
<text text-anchor="middle" x="1004" y="-242.12" font-family="Arial, sans-serif" font-size="10.00">• ViolacionReglaDeNegocio</text>
</g>
<!-- RepositorioTypeOrmProducto -->
<g id="node21" class="node">
<title>RepositorioTypeOrmProducto</title>
<polygon fill="#ce93d8" stroke="black" points="410,-730.62 244,-730.62 244,-683.62 410,-683.62 410,-730.62"/>
<text text-anchor="middle" x="327" y="-715.62" font-family="Arial, sans-serif" font-size="10.00">RepositorioTypeOrmProducto</text>
<text text-anchor="middle" x="327" y="-704.62" font-family="Arial, sans-serif" font-size="10.00">• implementa IRepositorioProducto</text>
<text text-anchor="middle" x="327" y="-693.62" font-family="Arial, sans-serif" font-size="10.00">• usa MapeadorProducto</text>
</g>
<!-- RepositorioTypeOrmProducto&#45;&gt;IRepositorioProducto -->
<g id="edge17" class="edge">
<title>RepositorioTypeOrmProducto&#45;&gt;IRepositorioProducto</title>
<path fill="none" stroke="#7b1fa2" stroke-dasharray="5,2" d="M410.32,-694.98C493.55,-682.1 613.53,-658.22 645,-624.12 694.22,-570.79 619.31,-512.08 673,-463.25 768.64,-376.28 1123.86,-424.2 1253,-418.25 1268.07,-417.55 1782.67,-417.31 1796,-410.25 1828.36,-393.13 1852.8,-360.91 1869.83,-330.89"/>
<polygon fill="#7b1fa2" stroke="#7b1fa2" points="1872.93,-332.53 1874.66,-322.08 1866.79,-329.17 1872.93,-332.53"/>
<text text-anchor="middle" x="697.5" y="-508.92" font-family="Arial, sans-serif" font-size="9.00">implementa</text>
</g>
<!-- MapeadorProducto -->
<g id="node23" class="node">
<title>MapeadorProducto</title>
<polygon fill="#ba68c8" stroke="black" points="346.5,-540.12 247.5,-540.12 247.5,-482.12 346.5,-482.12 346.5,-540.12"/>
<text text-anchor="middle" x="297" y="-525.12" font-family="Arial, sans-serif" font-size="10.00">MapeadorProducto</text>
<text text-anchor="middle" x="297" y="-514.12" font-family="Arial, sans-serif" font-size="10.00">• aDominio()</text>
<text text-anchor="middle" x="297" y="-503.12" font-family="Arial, sans-serif" font-size="10.00">• aEntidad()</text>
<text text-anchor="middle" x="297" y="-492.12" font-family="Arial, sans-serif" font-size="10.00">• aArregloDominio()</text>
</g>
<!-- RepositorioTypeOrmProducto&#45;&gt;MapeadorProducto -->
<g id="edge19" class="edge">
<title>RepositorioTypeOrmProducto&#45;&gt;MapeadorProducto</title>
<path fill="none" stroke="#7b1fa2" d="M323.5,-683.49C318.45,-650.83 309.05,-590.05 302.91,-550.35"/>
<polygon fill="#7b1fa2" stroke="#7b1fa2" points="306.34,-549.59 301.35,-540.25 299.42,-550.66 306.34,-549.59"/>
<text text-anchor="middle" x="322" y="-616.92" font-family="Arial, sans-serif" font-size="9.00">usa</text>
</g>
<!-- PostgreSQL -->
<g id="node27" class="node">
<title>PostgreSQL</title>
<path fill="#c5cae9" stroke="black" d="M876,-543.65C876,-547.64 855.83,-550.88 831,-550.88 806.17,-550.88 786,-547.64 786,-543.65 786,-543.65 786,-478.6 786,-478.6 786,-474.61 806.17,-471.37 831,-471.37 855.83,-471.37 876,-474.61 876,-478.6 876,-478.6 876,-543.65 876,-543.65"/>
<path fill="none" stroke="black" d="M876,-543.65C876,-539.66 855.83,-536.42 831,-536.42 806.17,-536.42 786,-539.66 786,-543.65"/>
<text text-anchor="middle" x="831" y="-525.12" font-family="Arial, sans-serif" font-size="10.00">PostgreSQL</text>
<text text-anchor="middle" x="831" y="-514.12" font-family="Arial, sans-serif" font-size="10.00">Base de Datos</text>
<text text-anchor="middle" x="831" y="-503.12" font-family="Arial, sans-serif" font-size="10.00">• Tabla productos</text>
<text text-anchor="middle" x="831" y="-492.12" font-family="Arial, sans-serif" font-size="10.00">• Tabla usuarios</text>
</g>
<!-- RepositorioTypeOrmProducto&#45;&gt;PostgreSQL -->
<g id="edge25" class="edge">
<title>RepositorioTypeOrmProducto&#45;&gt;PostgreSQL</title>
<path fill="none" stroke="#3f51b5" d="M410.29,-702.12C493.63,-695.16 623.43,-676.13 723,-624.12 752.45,-608.74 778.53,-582.29 797.68,-558.95"/>
<polygon fill="#3f51b5" stroke="#3f51b5" points="800.65,-560.85 804.16,-550.85 795.18,-556.47 800.65,-560.85"/>
<text text-anchor="middle" x="760" y="-616.92" font-family="Arial, sans-serif" font-size="9.00">persiste en</text>
</g>
<!-- RepositorioTypeOrmUsuario -->
<g id="node22" class="node">
<title>RepositorioTypeOrmUsuario</title>
<polygon fill="#ce93d8" stroke="black" points="185.5,-730.62 24.5,-730.62 24.5,-683.62 185.5,-683.62 185.5,-730.62"/>
<text text-anchor="middle" x="105" y="-715.62" font-family="Arial, sans-serif" font-size="10.00">RepositorioTypeOrmUsuario</text>
<text text-anchor="middle" x="105" y="-704.62" font-family="Arial, sans-serif" font-size="10.00">• implementa IRepositorioUsuario</text>
<text text-anchor="middle" x="105" y="-693.62" font-family="Arial, sans-serif" font-size="10.00">• usa MapeadorUsuario</text>
</g>
<!-- RepositorioTypeOrmUsuario&#45;&gt;IRepositorioUsuario -->
<g id="edge18" class="edge">
<title>RepositorioTypeOrmUsuario&#45;&gt;IRepositorioUsuario</title>
<path fill="none" stroke="#7b1fa2" stroke-dasharray="5,2" d="M153.71,-683.59C172.62,-675.3 194.6,-666.21 215,-659.12 271.12,-639.63 289.81,-648.46 344,-624.12 463.17,-570.61 471.7,-518.67 590,-463.25 651.87,-434.26 669.47,-428.68 737,-418.25 760.39,-414.64 1567.98,-421.12 1589,-410.25 1620.03,-394.2 1644.16,-364.56 1661.59,-335.98"/>
<polygon fill="#7b1fa2" stroke="#7b1fa2" points="1664.72,-337.55 1666.78,-327.16 1658.69,-334 1664.72,-337.55"/>
<text text-anchor="middle" x="614.5" y="-508.92" font-family="Arial, sans-serif" font-size="9.00">implementa</text>
</g>
<!-- MapeadorUsuario -->
<g id="node24" class="node">
<title>MapeadorUsuario</title>
<polygon fill="#ba68c8" stroke="black" points="189.5,-540.12 90.5,-540.12 90.5,-482.12 189.5,-482.12 189.5,-540.12"/>
<text text-anchor="middle" x="140" y="-525.12" font-family="Arial, sans-serif" font-size="10.00">MapeadorUsuario</text>
<text text-anchor="middle" x="140" y="-514.12" font-family="Arial, sans-serif" font-size="10.00">• aDominio()</text>
<text text-anchor="middle" x="140" y="-503.12" font-family="Arial, sans-serif" font-size="10.00">• aEntidad()</text>
<text text-anchor="middle" x="140" y="-492.12" font-family="Arial, sans-serif" font-size="10.00">• aArregloDominio()</text>
</g>
<!-- RepositorioTypeOrmUsuario&#45;&gt;MapeadorUsuario -->
<g id="edge20" class="edge">
<title>RepositorioTypeOrmUsuario&#45;&gt;MapeadorUsuario</title>
<path fill="none" stroke="#7b1fa2" d="M109.08,-683.49C114.99,-650.76 125.99,-589.79 133.15,-550.1"/>
<polygon fill="#7b1fa2" stroke="#7b1fa2" points="136.6,-550.71 134.93,-540.25 129.71,-549.47 136.6,-550.71"/>
<text text-anchor="middle" x="130" y="-616.92" font-family="Arial, sans-serif" font-size="9.00">usa</text>
</g>
<!-- RepositorioTypeOrmUsuario&#45;&gt;PostgreSQL -->
<g id="edge26" class="edge">
<title>RepositorioTypeOrmUsuario&#45;&gt;PostgreSQL</title>
<path fill="none" stroke="#3f51b5" d="M149.41,-683.5C169.03,-674.47 192.68,-664.87 215,-659.12 215.45,-659.01 741.59,-606.33 742,-606.12 763.87,-595.39 783.17,-576.89 798.17,-559.13"/>
<polygon fill="#3f51b5" stroke="#3f51b5" points="801.14,-561.01 804.74,-551.05 795.72,-556.59 801.14,-561.01"/>
<text text-anchor="middle" x="677" y="-616.92" font-family="Arial, sans-serif" font-size="9.00">persiste en</text>
</g>
<!-- MapeadorProducto&#45;&gt;Producto -->
<g id="edge21" class="edge">
<title>MapeadorProducto&#45;&gt;Producto</title>
<path fill="none" stroke="#7b1fa2" d="M343.84,-482.11C383.78,-459.93 443.52,-430.69 500,-418.25 525.31,-412.68 1410.76,-423.56 1433,-410.25 1470.65,-387.71 1491.97,-340.87 1503.18,-305.86"/>
<polygon fill="#7b1fa2" stroke="#7b1fa2" points="1506.65,-306.46 1506.21,-295.87 1499.95,-304.43 1506.65,-306.46"/>
<text text-anchor="middle" x="541" y="-421.05" font-family="Arial, sans-serif" font-size="9.00">mapea desde/hacia</text>
</g>
<!-- EntidadProducto -->
<g id="node25" class="node">
<title>EntidadProducto</title>
<polygon fill="#ab47bc" stroke="black" points="312.5,-284.62 197.5,-284.62 197.5,-237.62 312.5,-237.62 312.5,-284.62"/>
<text text-anchor="middle" x="255" y="-269.62" font-family="Arial, sans-serif" font-size="10.00">EntidadProducto</text>
<text text-anchor="middle" x="255" y="-258.62" font-family="Arial, sans-serif" font-size="10.00">@Entity(&#39;productos&#39;)</text>
<text text-anchor="middle" x="255" y="-247.62" font-family="Arial, sans-serif" font-size="10.00">Anotaciones TypeORM</text>
</g>
<!-- MapeadorProducto&#45;&gt;EntidadProducto -->
<g id="edge22" class="edge">
<title>MapeadorProducto&#45;&gt;EntidadProducto</title>
<path fill="none" stroke="#7b1fa2" d="M254.13,-481.79C237.02,-467.91 219.21,-449.57 210,-428.25 190.52,-383.18 214.59,-327.53 234.32,-293.44"/>
<polygon fill="#7b1fa2" stroke="#7b1fa2" points="237.34,-295.22 239.48,-284.85 231.33,-291.62 237.34,-295.22"/>
<text text-anchor="middle" x="251" y="-421.05" font-family="Arial, sans-serif" font-size="9.00">mapea desde/hacia</text>
</g>
<!-- MapeadorUsuario&#45;&gt;Usuario -->
<g id="edge23" class="edge">
<title>MapeadorUsuario&#45;&gt;Usuario</title>
<path fill="none" stroke="#7b1fa2" d="M182.79,-482.07C193.98,-475.39 206.22,-468.64 218,-463.25 276.28,-436.58 291.76,-428.65 355,-418.25 380.03,-414.13 1246.17,-423.17 1268,-410.25 1306.14,-387.67 1328.11,-340.52 1339.75,-305.44"/>
<polygon fill="#7b1fa2" stroke="#7b1fa2" points="1343.09,-306.49 1342.76,-295.9 1336.41,-304.38 1343.09,-306.49"/>
<text text-anchor="middle" x="396" y="-421.05" font-family="Arial, sans-serif" font-size="9.00">mapea desde/hacia</text>
</g>
<!-- EntidadUsuario -->
<g id="node26" class="node">
<title>EntidadUsuario</title>
<polygon fill="#ab47bc" stroke="black" points="139.5,-284.62 24.5,-284.62 24.5,-237.62 139.5,-237.62 139.5,-284.62"/>
<text text-anchor="middle" x="82" y="-269.62" font-family="Arial, sans-serif" font-size="10.00">EntidadUsuario</text>
<text text-anchor="middle" x="82" y="-258.62" font-family="Arial, sans-serif" font-size="10.00">@Entity(&#39;usuarios&#39;)</text>
<text text-anchor="middle" x="82" y="-247.62" font-family="Arial, sans-serif" font-size="10.00">Anotaciones TypeORM</text>
</g>
<!-- MapeadorUsuario&#45;&gt;EntidadUsuario -->
<g id="edge24" class="edge">
<title>MapeadorUsuario&#45;&gt;EntidadUsuario</title>
<path fill="none" stroke="#7b1fa2" d="M128.75,-482.07C122.81,-466.43 115.78,-446.48 111,-428.25 99.03,-382.64 90.64,-328.66 86.07,-294.9"/>
<polygon fill="#7b1fa2" stroke="#7b1fa2" points="89.5,-294.14 84.72,-284.68 82.56,-295.06 89.5,-294.14"/>
<text text-anchor="middle" x="152" y="-421.05" font-family="Arial, sans-serif" font-size="9.00">mapea desde/hacia</text>
</g>
</g>
</svg>
