<?xml version="1.0" encoding="UTF-8" standalone="no"?>
<!DOCTYPE svg PUBLIC "-//W3C//DTD SVG 1.1//EN"
 "http://www.w3.org/Graphics/SVG/1.1/DTD/svg11.dtd">
<!-- Generated by graphviz version 2.42.4 (0)
 -->
<!-- Title: CleanArchitectureLayers Pages: 1 -->
<svg width="2199pt" height="944pt"
 viewBox="0.00 0.00 2199.00 943.62" xmlns="http://www.w3.org/2000/svg" xmlns:xlink="http://www.w3.org/1999/xlink">
<g id="graph0" class="graph" transform="scale(1 1) rotate(0) translate(36 907.62)">
<title>CleanArchitectureLayers</title>
<polygon fill="#f8f9fa" stroke="transparent" points="-36,36 -36,-907.62 2163,-907.62 2163,36 -36,36"/>
<text text-anchor="start" x="895" y="-855.82" font-family="Arial, sans-serif" font-weight="bold" font-size="16.00">Clean Architecture &#45; Layers &amp; Dependencies</text>
<text text-anchor="start" x="965.5" y="-839.82" font-family="Arial, sans-serif" font-size="16.00"> &#160;&#160;&#160;</text>
<text text-anchor="start" x="984.5" y="-839.82" font-family="Arial, sans-serif" font-style="italic" font-size="16.00">NestJS Project Structure</text>
<text text-anchor="start" x="942.5" y="-823.82" font-family="Arial, sans-serif" font-size="16.00"> &#160;&#160;&#160;</text>
<text text-anchor="start" x="961.5" y="-823.82" font-family="Arial, sans-serif" font-size="10.00">Dependencies flow inward only (Dependency Rule)</text>
<g id="clust1" class="cluster">
<title>cluster_presentation</title>
<polygon fill="#e3f2fd" stroke="#1976d2" points="1559,-659.12 1559,-793.12 1855,-793.12 1855,-659.12 1559,-659.12"/>
<text text-anchor="middle" x="1653.5" y="-777.92" font-family="Arial, sans-serif" font-size="14.00" fill="#1976d2">🌐 PRESENTATION LAYER</text>
<text text-anchor="middle" x="1653.5" y="-762.92" font-family="Arial, sans-serif" font-size="14.00" fill="#1976d2">(Adapters &#45; API)</text>
</g>
<g id="clust2" class="cluster">
<title>cluster_application</title>
<polygon fill="#e8f5e8" stroke="#388e3c" points="844,-477.12 844,-606.12 2119,-606.12 2119,-477.12 844,-477.12"/>
<text text-anchor="middle" x="930.5" y="-590.92" font-family="Arial, sans-serif" font-size="14.00" fill="#388e3c">🏢 APPLICATION LAYER</text>
<text text-anchor="middle" x="930.5" y="-575.92" font-family="Arial, sans-serif" font-size="14.00" fill="#388e3c">(Use Cases &amp; DTOs)</text>
</g>
<g id="clust3" class="cluster">
<title>cluster_usecases</title>
<polygon fill="#c8e6c9" stroke="#2e7d32" points="1486,-485.12 1486,-560.12 2111,-560.12 2111,-485.12 1486,-485.12"/>
<text text-anchor="middle" x="1527.5" y="-544.92" font-family="Arial, sans-serif" font-size="14.00" fill="#388e3c">Use Cases</text>
</g>
<g id="clust4" class="cluster">
<title>cluster_dtos</title>
<polygon fill="#c8e6c9" stroke="#2e7d32" points="852,-485.12 852,-560.12 1444,-560.12 1444,-485.12 852,-485.12"/>
<text text-anchor="middle" x="878.5" y="-544.92" font-family="Arial, sans-serif" font-size="14.00" fill="#388e3c">DTOs</text>
</g>
<g id="clust5" class="cluster">
<title>cluster_domain</title>
<polygon fill="#fff3e0" stroke="#f57c00" points="783,-8 783,-410.25 1751,-410.25 1751,-8 783,-8"/>
<text text-anchor="middle" x="857.5" y="-395.05" font-family="Arial, sans-serif" font-size="14.00" fill="#f57c00">⚡ DOMAIN LAYER</text>
<text text-anchor="middle" x="857.5" y="-380.05" font-family="Arial, sans-serif" font-size="14.00" fill="#f57c00">(Core Business Logic)</text>
</g>
<g id="clust6" class="cluster">
<title>cluster_entities</title>
<polygon fill="#ffe0b2" stroke="#ef6c00" points="1111,-218.62 1111,-326.62 1365,-326.62 1365,-218.62 1111,-218.62"/>
<text text-anchor="middle" x="1141.5" y="-311.42" font-family="Arial, sans-serif" font-size="14.00" fill="#f57c00">Entities</text>
</g>
<g id="clust7" class="cluster">
<title>cluster_valueobjects</title>
<polygon fill="#ffe0b2" stroke="#ef6c00" points="1144,-16 1144,-124 1345,-124 1345,-16 1144,-16"/>
<text text-anchor="middle" x="1194.5" y="-108.8" font-family="Arial, sans-serif" font-size="14.00" fill="#f57c00">Value Objects</text>
</g>
<g id="clust8" class="cluster">
<title>cluster_repositories</title>
<polygon fill="#ffe0b2" stroke="#ef6c00" points="1407,-181 1407,-364.25 1743,-364.25 1743,-181 1407,-181"/>
<text text-anchor="middle" x="1479" y="-349.05" font-family="Arial, sans-serif" font-size="14.00" fill="#f57c00">Repository Interfaces</text>
</g>
<g id="clust9" class="cluster">
<title>cluster_events</title>
<polygon fill="#ffe0b2" stroke="#ef6c00" points="949,-27 949,-326.62 1076,-326.62 1076,-27 949,-27"/>
<text text-anchor="middle" x="1003.5" y="-311.42" font-family="Arial, sans-serif" font-size="14.00" fill="#f57c00">Domain Events</text>
</g>
<g id="clust10" class="cluster">
<title>cluster_infrastructure</title>
<polygon fill="#f3e5f5" stroke="#7b1fa2" points="8,-221.62 8,-807.62 403,-807.62 403,-221.62 8,-221.62"/>
<text text-anchor="middle" x="112.5" y="-792.42" font-family="Arial, sans-serif" font-size="14.00" fill="#7b1fa2">🔧 INFRASTRUCTURE LAYER</text>
<text text-anchor="middle" x="112.5" y="-777.42" font-family="Arial, sans-serif" font-size="14.00" fill="#7b1fa2">(Adapters &#45; Database)</text>
</g>
<g id="clust11" class="cluster">
<title>cluster_db</title>
<polygon fill="#e1bee7" stroke="#6a1b9a" points="16,-675.62 16,-761.62 395,-761.62 395,-675.62 16,-675.62"/>
<text text-anchor="middle" x="81.5" y="-746.42" font-family="Arial, sans-serif" font-size="14.00" fill="#7b1fa2">Database Adapters</text>
</g>
<g id="clust12" class="cluster">
<title>cluster_mappers</title>
<polygon fill="#e1bee7" stroke="#6a1b9a" points="43,-474.12 43,-571.12 302,-571.12 302,-474.12 43,-474.12"/>
<text text-anchor="middle" x="78" y="-555.92" font-family="Arial, sans-serif" font-size="14.00" fill="#7b1fa2">Mappers</text>
</g>
<g id="clust13" class="cluster">
<title>cluster_entities_db</title>
<polygon fill="#e1bee7" stroke="#6a1b9a" points="16,-229.62 16,-315.62 317,-315.62 317,-229.62 16,-229.62"/>
<text text-anchor="middle" x="77" y="-300.42" font-family="Arial, sans-serif" font-size="14.00" fill="#7b1fa2">Database Entities</text>
</g>
<g id="clust14" class="cluster">
<title>cluster_external</title>
<polygon fill="#e8eaf6" stroke="#3f51b5" points="631,-463.25 631,-597 836,-597 836,-463.25 631,-463.25"/>
<text text-anchor="middle" x="733.5" y="-581.8" font-family="Arial, sans-serif" font-size="14.00" fill="#3f51b5">🗄️ EXTERNAL LAYER</text>
<text text-anchor="middle" x="733.5" y="-566.8" font-family="Arial, sans-serif" font-size="14.00" fill="#3f51b5">(Database &amp; External Services)</text>
</g>
<!-- ProductController -->
<g id="node1" class="node">
<title>ProductController</title>
<polygon fill="#bbdefb" stroke="#1565c0" points="1846.5,-747.12 1729.5,-747.12 1729.5,-667.12 1846.5,-667.12 1846.5,-747.12"/>
<text text-anchor="middle" x="1788" y="-732.12" font-family="Arial, sans-serif" font-size="10.00">ProductController</text>
<text text-anchor="middle" x="1788" y="-721.12" font-family="Arial, sans-serif" font-size="10.00">• POST /products</text>
<text text-anchor="middle" x="1788" y="-710.12" font-family="Arial, sans-serif" font-size="10.00">• GET /products</text>
<text text-anchor="middle" x="1788" y="-699.12" font-family="Arial, sans-serif" font-size="10.00">• PUT /products/:id</text>
<text text-anchor="middle" x="1788" y="-688.12" font-family="Arial, sans-serif" font-size="10.00">• PATCH /stock</text>
<text text-anchor="middle" x="1788" y="-677.12" font-family="Arial, sans-serif" font-size="10.00">• DELETE /products/:id</text>
</g>
<!-- CreateProduct -->
<g id="node3" class="node">
<title>CreateProduct</title>
<polygon fill="#a5d6a7" stroke="black" points="1965,-529.12 1887,-529.12 1887,-493.12 1965,-493.12 1965,-529.12"/>
<text text-anchor="middle" x="1926" y="-508.62" font-family="Arial, sans-serif" font-size="10.00">CreateProduct</text>
</g>
<!-- ProductController&#45;&gt;CreateProduct -->
<g id="edge1" class="edge">
<title>ProductController&#45;&gt;CreateProduct</title>
<path fill="none" stroke="#1976d2" d="M1815.93,-666.87C1843.4,-628.24 1884.53,-570.42 1907.96,-537.49"/>
<polygon fill="#1976d2" stroke="#1976d2" points="1910.85,-539.47 1913.79,-529.29 1905.14,-535.41 1910.85,-539.47"/>
<text text-anchor="middle" x="1861.5" y="-616.92" font-family="Arial, sans-serif" font-size="9.00">calls</text>
</g>
<!-- GetAllProducts -->
<g id="node4" class="node">
<title>GetAllProducts</title>
<polygon fill="#a5d6a7" stroke="black" points="1828.5,-529.12 1747.5,-529.12 1747.5,-493.12 1828.5,-493.12 1828.5,-529.12"/>
<text text-anchor="middle" x="1788" y="-508.62" font-family="Arial, sans-serif" font-size="10.00">GetAllProducts</text>
</g>
<!-- ProductController&#45;&gt;GetAllProducts -->
<g id="edge2" class="edge">
<title>ProductController&#45;&gt;GetAllProducts</title>
<path fill="none" stroke="#1976d2" d="M1788,-666.87C1788,-629.07 1788,-572.87 1788,-539.62"/>
<polygon fill="#1976d2" stroke="#1976d2" points="1791.5,-539.29 1788,-529.29 1784.5,-539.29 1791.5,-539.29"/>
<text text-anchor="middle" x="1797.5" y="-616.92" font-family="Arial, sans-serif" font-size="9.00">calls</text>
</g>
<!-- UpdateProduct -->
<g id="node5" class="node">
<title>UpdateProduct</title>
<polygon fill="#a5d6a7" stroke="black" points="2103,-529.12 2023,-529.12 2023,-493.12 2103,-493.12 2103,-529.12"/>
<text text-anchor="middle" x="2063" y="-508.62" font-family="Arial, sans-serif" font-size="10.00">UpdateProduct</text>
</g>
<!-- ProductController&#45;&gt;UpdateProduct -->
<g id="edge3" class="edge">
<title>ProductController&#45;&gt;UpdateProduct</title>
<path fill="none" stroke="#1976d2" d="M1846.54,-686.5C1890.34,-669.83 1950.02,-642.77 1994,-606.12 2016.93,-587.02 2036.33,-558.75 2048.66,-538.2"/>
<polygon fill="#1976d2" stroke="#1976d2" points="2051.8,-539.76 2053.82,-529.36 2045.76,-536.24 2051.8,-539.76"/>
<text text-anchor="middle" x="1988.5" y="-616.92" font-family="Arial, sans-serif" font-size="9.00">calls</text>
</g>
<!-- ProductResponseDTO -->
<g id="node9" class="node">
<title>ProductResponseDTO</title>
<polygon fill="#81c784" stroke="black" points="1278,-529.12 1164,-529.12 1164,-493.12 1278,-493.12 1278,-529.12"/>
<text text-anchor="middle" x="1221" y="-508.62" font-family="Arial, sans-serif" font-size="10.00">ProductResponseDTO</text>
</g>
<!-- ProductController&#45;&gt;ProductResponseDTO -->
<g id="edge4" class="edge">
<title>ProductController&#45;&gt;ProductResponseDTO</title>
<path fill="none" stroke="#1976d2" d="M1740.6,-667.01C1713.5,-647.13 1677.85,-624.95 1642,-614.12 1606.46,-603.4 1341.83,-621.4 1308,-606.12 1276.51,-591.91 1251.2,-560.32 1236.16,-537.69"/>
<polygon fill="#1976d2" stroke="#1976d2" points="1239.07,-535.74 1230.73,-529.21 1233.18,-539.52 1239.07,-535.74"/>
<text text-anchor="middle" x="1678" y="-616.92" font-family="Arial, sans-serif" font-size="9.00">uses</text>
</g>
<!-- UserController -->
<g id="node2" class="node">
<title>UserController</title>
<polygon fill="#bbdefb" stroke="#1565c0" points="1671,-747.12 1567,-747.12 1567,-667.12 1671,-667.12 1671,-747.12"/>
<text text-anchor="middle" x="1619" y="-732.12" font-family="Arial, sans-serif" font-size="10.00">UserController</text>
<text text-anchor="middle" x="1619" y="-721.12" font-family="Arial, sans-serif" font-size="10.00">• POST /users</text>
<text text-anchor="middle" x="1619" y="-710.12" font-family="Arial, sans-serif" font-size="10.00">• GET /users</text>
<text text-anchor="middle" x="1619" y="-699.12" font-family="Arial, sans-serif" font-size="10.00">• PUT /users/:id</text>
<text text-anchor="middle" x="1619" y="-688.12" font-family="Arial, sans-serif" font-size="10.00">• PATCH /activate</text>
<text text-anchor="middle" x="1619" y="-677.12" font-family="Arial, sans-serif" font-size="10.00">• DELETE /users/:id</text>
</g>
<!-- CreateUser -->
<g id="node6" class="node">
<title>CreateUser</title>
<polygon fill="#a5d6a7" stroke="black" points="1689.5,-529.12 1624.5,-529.12 1624.5,-493.12 1689.5,-493.12 1689.5,-529.12"/>
<text text-anchor="middle" x="1657" y="-508.62" font-family="Arial, sans-serif" font-size="10.00">CreateUser</text>
</g>
<!-- UserController&#45;&gt;CreateUser -->
<g id="edge5" class="edge">
<title>UserController&#45;&gt;CreateUser</title>
<path fill="none" stroke="#1976d2" d="M1611.85,-666.86C1610.04,-650.43 1609.47,-631.21 1613,-614.12 1618.59,-587.06 1631.71,-558.33 1642.18,-538.29"/>
<polygon fill="#1976d2" stroke="#1976d2" points="1645.27,-539.92 1646.91,-529.46 1639.1,-536.62 1645.27,-539.92"/>
<text text-anchor="middle" x="1622.5" y="-616.92" font-family="Arial, sans-serif" font-size="9.00">calls</text>
</g>
<!-- ActivateUser -->
<g id="node7" class="node">
<title>ActivateUser</title>
<polygon fill="#a5d6a7" stroke="black" points="1566,-529.12 1494,-529.12 1494,-493.12 1566,-493.12 1566,-529.12"/>
<text text-anchor="middle" x="1530" y="-508.62" font-family="Arial, sans-serif" font-size="10.00">ActivateUser</text>
</g>
<!-- UserController&#45;&gt;ActivateUser -->
<g id="edge6" class="edge">
<title>UserController&#45;&gt;ActivateUser</title>
<path fill="none" stroke="#1976d2" d="M1598.72,-666.73C1591.96,-653.3 1584.5,-638.13 1578,-624.12 1564.59,-595.2 1550.33,-561.52 1540.87,-538.7"/>
<polygon fill="#1976d2" stroke="#1976d2" points="1544.06,-537.25 1537.01,-529.34 1537.59,-539.92 1544.06,-537.25"/>
<text text-anchor="middle" x="1587.5" y="-616.92" font-family="Arial, sans-serif" font-size="9.00">calls</text>
</g>
<!-- UserResponseDTO -->
<g id="node11" class="node">
<title>UserResponseDTO</title>
<polygon fill="#81c784" stroke="black" points="961.5,-529.12 860.5,-529.12 860.5,-493.12 961.5,-493.12 961.5,-529.12"/>
<text text-anchor="middle" x="911" y="-508.62" font-family="Arial, sans-serif" font-size="10.00">UserResponseDTO</text>
</g>
<!-- UserController&#45;&gt;UserResponseDTO -->
<g id="edge7" class="edge">
<title>UserController&#45;&gt;UserResponseDTO</title>
<path fill="none" stroke="#1976d2" d="M1566.87,-702.47C1434.69,-692.48 1089.9,-661.68 991,-606.12 962.55,-590.15 939.65,-559.93 925.75,-538.05"/>
<polygon fill="#1976d2" stroke="#1976d2" points="928.57,-535.95 920.36,-529.26 922.6,-539.61 928.57,-535.95"/>
<text text-anchor="middle" x="1037" y="-616.92" font-family="Arial, sans-serif" font-size="9.00">uses</text>
</g>
<!-- Product -->
<g id="node12" class="node">
<title>Product</title>
<polygon fill="#ffcc02" stroke="black" points="1357.5,-295.62 1264.5,-295.62 1264.5,-226.62 1357.5,-226.62 1357.5,-295.62"/>
<text text-anchor="middle" x="1311" y="-280.62" font-family="Arial, sans-serif" font-size="10.00">Product</text>
<text text-anchor="middle" x="1311" y="-269.62" font-family="Arial, sans-serif" font-size="10.00">• validateStock()</text>
<text text-anchor="middle" x="1311" y="-258.62" font-family="Arial, sans-serif" font-size="10.00">• updateDetails()</text>
<text text-anchor="middle" x="1311" y="-247.62" font-family="Arial, sans-serif" font-size="10.00">• increaseStock()</text>
<text text-anchor="middle" x="1311" y="-236.62" font-family="Arial, sans-serif" font-size="10.00">• decreaseStock()</text>
</g>
<!-- CreateProduct&#45;&gt;Product -->
<g id="edge8" class="edge">
<title>CreateProduct&#45;&gt;Product</title>
<path fill="none" stroke="#388e3c" d="M1905.84,-493.03C1892.94,-482.93 1875.4,-470.7 1858,-463.25 1767.85,-424.66 1739.37,-429.87 1642,-418.25 1628.26,-416.61 1404.81,-417.47 1393,-410.25 1355.45,-387.3 1333.78,-340.53 1322.25,-305.65"/>
<polygon fill="#388e3c" stroke="#388e3c" points="1325.46,-304.19 1319.13,-295.7 1318.78,-306.29 1325.46,-304.19"/>
<text text-anchor="middle" x="1749.5" y="-421.05" font-family="Arial, sans-serif" font-size="9.00">creates</text>
</g>
<!-- IProductRepository -->
<g id="node16" class="node">
<title>IProductRepository</title>
<ellipse fill="#ffa726" stroke="black" cx="1665" cy="-261.12" rx="70.01" ry="64.19"/>
<text text-anchor="middle" x="1665" y="-291.62" font-family="Arial, sans-serif" font-size="10.00">«interface»</text>
<text text-anchor="middle" x="1665" y="-280.62" font-family="Arial, sans-serif" font-size="10.00">IProductRepository</text>
<text text-anchor="middle" x="1665" y="-269.62" font-family="Arial, sans-serif" font-size="10.00">• save()</text>
<text text-anchor="middle" x="1665" y="-258.62" font-family="Arial, sans-serif" font-size="10.00">• findById()</text>
<text text-anchor="middle" x="1665" y="-247.62" font-family="Arial, sans-serif" font-size="10.00">• findAll()</text>
<text text-anchor="middle" x="1665" y="-236.62" font-family="Arial, sans-serif" font-size="10.00">• update()</text>
<text text-anchor="middle" x="1665" y="-225.62" font-family="Arial, sans-serif" font-size="10.00">• delete()</text>
</g>
<!-- CreateProduct&#45;&gt;IProductRepository -->
<g id="edge9" class="edge">
<title>CreateProduct&#45;&gt;IProductRepository</title>
<path fill="none" stroke="#388e3c" stroke-dasharray="5,2" d="M1911.79,-492.95C1895.9,-474.05 1869.09,-443.05 1844,-418.25 1805.97,-380.65 1760.53,-341.08 1724.95,-311.18"/>
<polygon fill="#388e3c" stroke="#388e3c" points="1726.97,-308.31 1717.06,-304.57 1722.48,-313.67 1726.97,-308.31"/>
<text text-anchor="middle" x="1877.5" y="-421.05" font-family="Arial, sans-serif" font-size="9.00">depends on</text>
</g>
<!-- User -->
<g id="node13" class="node">
<title>User</title>
<polygon fill="#ffcc02" stroke="black" points="1206.5,-295.62 1119.5,-295.62 1119.5,-226.62 1206.5,-226.62 1206.5,-295.62"/>
<text text-anchor="middle" x="1163" y="-280.62" font-family="Arial, sans-serif" font-size="10.00">User</text>
<text text-anchor="middle" x="1163" y="-269.62" font-family="Arial, sans-serif" font-size="10.00">• validateEmail()</text>
<text text-anchor="middle" x="1163" y="-258.62" font-family="Arial, sans-serif" font-size="10.00">• activate()</text>
<text text-anchor="middle" x="1163" y="-247.62" font-family="Arial, sans-serif" font-size="10.00">• deactivate()</text>
<text text-anchor="middle" x="1163" y="-236.62" font-family="Arial, sans-serif" font-size="10.00">• updateDetails()</text>
</g>
<!-- CreateUser&#45;&gt;User -->
<g id="edge10" class="edge">
<title>CreateUser&#45;&gt;User</title>
<path fill="none" stroke="#388e3c" d="M1638.53,-492.9C1626.85,-482.89 1610.99,-470.79 1595,-463.25 1516.9,-426.43 1491.5,-430.33 1406,-418.25 1387.28,-415.6 1251.82,-420.61 1236,-410.25 1200.2,-386.8 1181.33,-340.34 1171.82,-305.67"/>
<polygon fill="#388e3c" stroke="#388e3c" points="1175.16,-304.59 1169.27,-295.78 1168.38,-306.34 1175.16,-304.59"/>
<text text-anchor="middle" x="1498.5" y="-421.05" font-family="Arial, sans-serif" font-size="9.00">creates</text>
</g>
<!-- IUserRepository -->
<g id="node17" class="node">
<title>IUserRepository</title>
<ellipse fill="#ffa726" stroke="black" cx="1476" cy="-261.12" rx="60.62" ry="72.25"/>
<text text-anchor="middle" x="1476" y="-297.12" font-family="Arial, sans-serif" font-size="10.00">«interface»</text>
<text text-anchor="middle" x="1476" y="-286.12" font-family="Arial, sans-serif" font-size="10.00">IUserRepository</text>
<text text-anchor="middle" x="1476" y="-275.12" font-family="Arial, sans-serif" font-size="10.00">• save()</text>
<text text-anchor="middle" x="1476" y="-264.12" font-family="Arial, sans-serif" font-size="10.00">• findById()</text>
<text text-anchor="middle" x="1476" y="-253.12" font-family="Arial, sans-serif" font-size="10.00">• findByEmail()</text>
<text text-anchor="middle" x="1476" y="-242.12" font-family="Arial, sans-serif" font-size="10.00">• findAll()</text>
<text text-anchor="middle" x="1476" y="-231.12" font-family="Arial, sans-serif" font-size="10.00">• update()</text>
<text text-anchor="middle" x="1476" y="-220.12" font-family="Arial, sans-serif" font-size="10.00">• delete()</text>
</g>
<!-- CreateUser&#45;&gt;IUserRepository -->
<g id="edge11" class="edge">
<title>CreateUser&#45;&gt;IUserRepository</title>
<path fill="none" stroke="#388e3c" stroke-dasharray="5,2" d="M1639.47,-492.98C1620.29,-473.77 1589.19,-441.24 1566,-410.25 1547.45,-385.47 1529.28,-356.68 1514.17,-331.12"/>
<polygon fill="#388e3c" stroke="#388e3c" points="1517.04,-329.08 1508.96,-322.22 1511,-332.62 1517.04,-329.08"/>
<text text-anchor="middle" x="1603.5" y="-421.05" font-family="Arial, sans-serif" font-size="9.00">depends on</text>
</g>
<!-- CreateProductDTO -->
<g id="node8" class="node">
<title>CreateProductDTO</title>
<polygon fill="#81c784" stroke="black" points="1435.5,-529.12 1336.5,-529.12 1336.5,-493.12 1435.5,-493.12 1435.5,-529.12"/>
<text text-anchor="middle" x="1386" y="-508.62" font-family="Arial, sans-serif" font-size="10.00">CreateProductDTO</text>
</g>
<!-- CreateProductDTO&#45;&gt;Product -->
<g id="edge12" class="edge">
<title>CreateProductDTO&#45;&gt;Product</title>
<path fill="none" stroke="#388e3c" d="M1380.84,-493.08C1369.26,-454.78 1340.88,-360.92 1324.08,-305.36"/>
<polygon fill="#388e3c" stroke="#388e3c" points="1327.43,-304.35 1321.18,-295.79 1320.72,-306.37 1327.43,-304.35"/>
<text text-anchor="middle" x="1375.5" y="-421.05" font-family="Arial, sans-serif" font-size="9.00">maps to</text>
</g>
<!-- CreateUserDTO -->
<g id="node10" class="node">
<title>CreateUserDTO</title>
<polygon fill="#81c784" stroke="black" points="1106,-529.12 1020,-529.12 1020,-493.12 1106,-493.12 1106,-529.12"/>
<text text-anchor="middle" x="1063" y="-508.62" font-family="Arial, sans-serif" font-size="10.00">CreateUserDTO</text>
</g>
<!-- CreateUserDTO&#45;&gt;User -->
<g id="edge13" class="edge">
<title>CreateUserDTO&#45;&gt;User</title>
<path fill="none" stroke="#388e3c" d="M1069.87,-493.08C1085.32,-454.78 1123.16,-360.92 1145.57,-305.36"/>
<polygon fill="#388e3c" stroke="#388e3c" points="1148.93,-306.37 1149.43,-295.79 1142.44,-303.75 1148.93,-306.37"/>
<text text-anchor="middle" x="1114.5" y="-421.05" font-family="Arial, sans-serif" font-size="9.00">maps to</text>
</g>
<!-- Money -->
<g id="node15" class="node">
<title>Money</title>
<polygon fill="#ffb74d" stroke="black" points="1336.5,-93 1271.5,-93 1271.5,-24 1336.5,-24 1336.5,-93"/>
<text text-anchor="middle" x="1304" y="-78" font-family="Arial, sans-serif" font-size="10.00">Money</text>
<text text-anchor="middle" x="1304" y="-67" font-family="Arial, sans-serif" font-size="10.00">• add()</text>
<text text-anchor="middle" x="1304" y="-56" font-family="Arial, sans-serif" font-size="10.00">• subtract()</text>
<text text-anchor="middle" x="1304" y="-45" font-family="Arial, sans-serif" font-size="10.00">• multiply()</text>
<text text-anchor="middle" x="1304" y="-34" font-family="Arial, sans-serif" font-size="10.00">• compare()</text>
</g>
<!-- Product&#45;&gt;Money -->
<g id="edge15" class="edge">
<title>Product&#45;&gt;Money</title>
<path fill="none" stroke="#f57c00" d="M1309.83,-226.54C1308.65,-192.69 1306.82,-140.29 1305.53,-103.21"/>
<polygon fill="#f57c00" stroke="#f57c00" points="1309.02,-103.06 1305.18,-93.19 1302.03,-103.31 1309.02,-103.06"/>
<text text-anchor="middle" x="1316" y="-138.8" font-family="Arial, sans-serif" font-size="9.00">uses</text>
</g>
<!-- Email -->
<g id="node14" class="node">
<title>Email</title>
<polygon fill="#ffb74d" stroke="black" points="1213.5,-87.5 1152.5,-87.5 1152.5,-29.5 1213.5,-29.5 1213.5,-87.5"/>
<text text-anchor="middle" x="1183" y="-72.5" font-family="Arial, sans-serif" font-size="10.00">Email</text>
<text text-anchor="middle" x="1183" y="-61.5" font-family="Arial, sans-serif" font-size="10.00">• validate()</text>
<text text-anchor="middle" x="1183" y="-50.5" font-family="Arial, sans-serif" font-size="10.00">• equals()</text>
<text text-anchor="middle" x="1183" y="-39.5" font-family="Arial, sans-serif" font-size="10.00">• toString()</text>
</g>
<!-- User&#45;&gt;Email -->
<g id="edge14" class="edge">
<title>User&#45;&gt;Email</title>
<path fill="none" stroke="#f57c00" d="M1166.35,-226.54C1169.89,-190.96 1175.49,-134.87 1179.2,-97.64"/>
<polygon fill="#f57c00" stroke="#f57c00" points="1182.68,-97.97 1180.19,-87.67 1175.72,-97.28 1182.68,-97.97"/>
<text text-anchor="middle" x="1191.5" y="-138.8" font-family="Arial, sans-serif" font-size="9.00">contains</text>
</g>
<!-- DomainEvents -->
<g id="node18" class="node">
<title>DomainEvents</title>
<polygon fill="#ff9800" stroke="black" points="1061,-295.62 969,-295.62 969,-226.62 1061,-226.62 1061,-295.62"/>
<text text-anchor="middle" x="1015" y="-280.62" font-family="Arial, sans-serif" font-size="10.00">Events</text>
<text text-anchor="middle" x="1015" y="-269.62" font-family="Arial, sans-serif" font-size="10.00">• ProductCreated</text>
<text text-anchor="middle" x="1015" y="-258.62" font-family="Arial, sans-serif" font-size="10.00">• ProductUpdated</text>
<text text-anchor="middle" x="1015" y="-247.62" font-family="Arial, sans-serif" font-size="10.00">• StockChanged</text>
<text text-anchor="middle" x="1015" y="-236.62" font-family="Arial, sans-serif" font-size="10.00">• UserCreated</text>
</g>
<!-- EventBus -->
<g id="node19" class="node">
<title>EventBus</title>
<polygon fill="#ff9800" stroke="black" points="1049.5,-82 980.5,-82 980.5,-35 1049.5,-35 1049.5,-82"/>
<text text-anchor="middle" x="1015" y="-67" font-family="Arial, sans-serif" font-size="10.00">EventBus</text>
<text text-anchor="middle" x="1015" y="-56" font-family="Arial, sans-serif" font-size="10.00">• publish()</text>
<text text-anchor="middle" x="1015" y="-45" font-family="Arial, sans-serif" font-size="10.00">• subscribe()</text>
</g>
<!-- DomainEvents&#45;&gt;EventBus -->
<g id="edge16" class="edge">
<title>DomainEvents&#45;&gt;EventBus</title>
<path fill="none" stroke="#f57c00" d="M1015,-226.54C1015,-189.28 1015,-129.54 1015,-92.51"/>
<polygon fill="#f57c00" stroke="#f57c00" points="1018.5,-92.25 1015,-82.25 1011.5,-92.25 1018.5,-92.25"/>
<text text-anchor="middle" x="1041.5" y="-138.8" font-family="Arial, sans-serif" font-size="9.00">published by</text>
</g>
<!-- DomainErrors -->
<g id="node20" class="node">
<title>DomainErrors</title>
<polygon fill="#ffab91" stroke="black" points="911,-290.12 791,-290.12 791,-232.12 911,-232.12 911,-290.12"/>
<text text-anchor="middle" x="851" y="-275.12" font-family="Arial, sans-serif" font-size="10.00">Domain Errors</text>
<text text-anchor="middle" x="851" y="-264.12" font-family="Arial, sans-serif" font-size="10.00">• ValidationError</text>
<text text-anchor="middle" x="851" y="-253.12" font-family="Arial, sans-serif" font-size="10.00">• EntityNotFoundError</text>
<text text-anchor="middle" x="851" y="-242.12" font-family="Arial, sans-serif" font-size="10.00">• BusinessRuleViolation</text>
</g>
<!-- TypeOrmProductRepo -->
<g id="node21" class="node">
<title>TypeOrmProductRepo</title>
<polygon fill="#ce93d8" stroke="black" points="387.5,-730.62 228.5,-730.62 228.5,-683.62 387.5,-683.62 387.5,-730.62"/>
<text text-anchor="middle" x="308" y="-715.62" font-family="Arial, sans-serif" font-size="10.00">TypeOrmProductRepository</text>
<text text-anchor="middle" x="308" y="-704.62" font-family="Arial, sans-serif" font-size="10.00">• implements IProductRepository</text>
<text text-anchor="middle" x="308" y="-693.62" font-family="Arial, sans-serif" font-size="10.00">• uses ProductMapper</text>
</g>
<!-- TypeOrmProductRepo&#45;&gt;IProductRepository -->
<g id="edge17" class="edge">
<title>TypeOrmProductRepo&#45;&gt;IProductRepository</title>
<path fill="none" stroke="#7b1fa2" stroke-dasharray="5,2" d="M387.63,-698.51C438.99,-689.3 503.05,-668.97 541,-624.12 587.89,-568.73 515.54,-512.34 569,-463.25 653.62,-385.55 969.27,-424.21 1084,-418.25 1097.37,-417.56 1554.24,-416.66 1566,-410.25 1597.5,-393.08 1620.78,-361.05 1636.82,-331.16"/>
<polygon fill="#7b1fa2" stroke="#7b1fa2" points="1640.09,-332.47 1641.57,-321.97 1633.87,-329.25 1640.09,-332.47"/>
<text text-anchor="middle" x="593" y="-508.92" font-family="Arial, sans-serif" font-size="9.00">implements</text>
</g>
<!-- ProductMapper -->
<g id="node23" class="node">
<title>ProductMapper</title>
<polygon fill="#ba68c8" stroke="black" points="294.5,-540.12 201.5,-540.12 201.5,-482.12 294.5,-482.12 294.5,-540.12"/>
<text text-anchor="middle" x="248" y="-525.12" font-family="Arial, sans-serif" font-size="10.00">ProductMapper</text>
<text text-anchor="middle" x="248" y="-514.12" font-family="Arial, sans-serif" font-size="10.00">• toDomain()</text>
<text text-anchor="middle" x="248" y="-503.12" font-family="Arial, sans-serif" font-size="10.00">• toEntity()</text>
<text text-anchor="middle" x="248" y="-492.12" font-family="Arial, sans-serif" font-size="10.00">• toDomainArray()</text>
</g>
<!-- TypeOrmProductRepo&#45;&gt;ProductMapper -->
<g id="edge19" class="edge">
<title>TypeOrmProductRepo&#45;&gt;ProductMapper</title>
<path fill="none" stroke="#7b1fa2" d="M301,-683.49C290.85,-650.69 271.94,-589.53 259.67,-549.84"/>
<polygon fill="#7b1fa2" stroke="#7b1fa2" points="263,-548.77 256.7,-540.25 256.31,-550.83 263,-548.77"/>
<text text-anchor="middle" x="292" y="-616.92" font-family="Arial, sans-serif" font-size="9.00">uses</text>
</g>
<!-- PostgreSQL -->
<g id="node27" class="node">
<title>PostgreSQL</title>
<path fill="#c5cae9" stroke="black" d="M767,-543.65C767,-547.64 747.73,-550.88 724,-550.88 700.27,-550.88 681,-547.64 681,-543.65 681,-543.65 681,-478.6 681,-478.6 681,-474.61 700.27,-471.37 724,-471.37 747.73,-471.37 767,-474.61 767,-478.6 767,-478.6 767,-543.65 767,-543.65"/>
<path fill="none" stroke="black" d="M767,-543.65C767,-539.66 747.73,-536.42 724,-536.42 700.27,-536.42 681,-539.66 681,-543.65"/>
<text text-anchor="middle" x="724" y="-525.12" font-family="Arial, sans-serif" font-size="10.00">PostgreSQL</text>
<text text-anchor="middle" x="724" y="-514.12" font-family="Arial, sans-serif" font-size="10.00">Database</text>
<text text-anchor="middle" x="724" y="-503.12" font-family="Arial, sans-serif" font-size="10.00">• Products Table</text>
<text text-anchor="middle" x="724" y="-492.12" font-family="Arial, sans-serif" font-size="10.00">• Users Table</text>
</g>
<!-- TypeOrmProductRepo&#45;&gt;PostgreSQL -->
<g id="edge25" class="edge">
<title>TypeOrmProductRepo&#45;&gt;PostgreSQL</title>
<path fill="none" stroke="#3f51b5" d="M387.77,-696.85C453.34,-686.56 546.86,-665.58 619,-624.12 647.32,-607.85 672.59,-581.49 691.24,-558.43"/>
<polygon fill="#3f51b5" stroke="#3f51b5" points="694.1,-560.45 697.55,-550.43 688.61,-556.11 694.1,-560.45"/>
<text text-anchor="middle" x="653" y="-616.92" font-family="Arial, sans-serif" font-size="9.00">persists to</text>
</g>
<!-- TypeOrmUserRepo -->
<g id="node22" class="node">
<title>TypeOrmUserRepo</title>
<polygon fill="#ce93d8" stroke="black" points="170,-730.62 24,-730.62 24,-683.62 170,-683.62 170,-730.62"/>
<text text-anchor="middle" x="97" y="-715.62" font-family="Arial, sans-serif" font-size="10.00">TypeOrmUserRepository</text>
<text text-anchor="middle" x="97" y="-704.62" font-family="Arial, sans-serif" font-size="10.00">• implements IUserRepository</text>
<text text-anchor="middle" x="97" y="-693.62" font-family="Arial, sans-serif" font-size="10.00">• uses UserMapper</text>
</g>
<!-- TypeOrmUserRepo&#45;&gt;IUserRepository -->
<g id="edge18" class="edge">
<title>TypeOrmUserRepo&#45;&gt;IUserRepository</title>
<path fill="none" stroke="#7b1fa2" stroke-dasharray="5,2" d="M142.37,-683.55C159.84,-675.3 180.12,-666.26 199,-659.12 249.77,-639.94 268.97,-651.22 316,-624.12 406.41,-572.02 396.71,-515.55 487,-463.25 546.49,-428.79 567.05,-428.73 635,-418.25 655.43,-415.1 1360.87,-420.17 1379,-410.25 1408.56,-394.07 1430.59,-364.58 1446.12,-336.15"/>
<polygon fill="#7b1fa2" stroke="#7b1fa2" points="1449.39,-337.45 1450.94,-326.97 1443.19,-334.2 1449.39,-337.45"/>
<text text-anchor="middle" x="511" y="-508.92" font-family="Arial, sans-serif" font-size="9.00">implements</text>
</g>
<!-- UserMapper -->
<g id="node24" class="node">
<title>UserMapper</title>
<polygon fill="#ba68c8" stroke="black" points="143.5,-540.12 50.5,-540.12 50.5,-482.12 143.5,-482.12 143.5,-540.12"/>
<text text-anchor="middle" x="97" y="-525.12" font-family="Arial, sans-serif" font-size="10.00">UserMapper</text>
<text text-anchor="middle" x="97" y="-514.12" font-family="Arial, sans-serif" font-size="10.00">• toDomain()</text>
<text text-anchor="middle" x="97" y="-503.12" font-family="Arial, sans-serif" font-size="10.00">• toEntity()</text>
<text text-anchor="middle" x="97" y="-492.12" font-family="Arial, sans-serif" font-size="10.00">• toDomainArray()</text>
</g>
<!-- TypeOrmUserRepo&#45;&gt;UserMapper -->
<g id="edge20" class="edge">
<title>TypeOrmUserRepo&#45;&gt;UserMapper</title>
<path fill="none" stroke="#7b1fa2" d="M97,-683.49C97,-650.83 97,-590.05 97,-550.35"/>
<polygon fill="#7b1fa2" stroke="#7b1fa2" points="100.5,-550.25 97,-540.25 93.5,-550.25 100.5,-550.25"/>
<text text-anchor="middle" x="107" y="-616.92" font-family="Arial, sans-serif" font-size="9.00">uses</text>
</g>
<!-- TypeOrmUserRepo&#45;&gt;PostgreSQL -->
<g id="edge26" class="edge">
<title>TypeOrmUserRepo&#45;&gt;PostgreSQL</title>
<path fill="none" stroke="#3f51b5" d="M138.56,-683.43C156.64,-674.5 178.37,-665 199,-659.12 277.39,-636.8 482.04,-623.51 563,-614.12 579.43,-612.22 622.22,-613.55 637,-606.12 658.54,-595.3 677.43,-576.79 692.06,-559.04"/>
<polygon fill="#3f51b5" stroke="#3f51b5" points="695,-560.97 698.48,-550.97 689.52,-556.62 695,-560.97"/>
<text text-anchor="middle" x="584" y="-616.92" font-family="Arial, sans-serif" font-size="9.00">persists to</text>
</g>
<!-- ProductMapper&#45;&gt;Product -->
<g id="edge21" class="edge">
<title>ProductMapper&#45;&gt;Product</title>
<path fill="none" stroke="#7b1fa2" d="M285.63,-481.95C317.63,-459.83 365.78,-430.76 413,-418.25 435.1,-412.4 1216.58,-422.31 1236,-410.25 1272.66,-387.48 1292.09,-340.67 1301.91,-305.74"/>
<polygon fill="#7b1fa2" stroke="#7b1fa2" points="1305.37,-306.34 1304.54,-295.78 1298.6,-304.55 1305.37,-306.34"/>
<text text-anchor="middle" x="439.5" y="-421.05" font-family="Arial, sans-serif" font-size="9.00">maps from/to</text>
</g>
<!-- ProductEntity -->
<g id="node25" class="node">
<title>ProductEntity</title>
<polygon fill="#ab47bc" stroke="black" points="308.5,-284.62 195.5,-284.62 195.5,-237.62 308.5,-237.62 308.5,-284.62"/>
<text text-anchor="middle" x="252" y="-269.62" font-family="Arial, sans-serif" font-size="10.00">ProductEntity</text>
<text text-anchor="middle" x="252" y="-258.62" font-family="Arial, sans-serif" font-size="10.00">@Entity(&#39;products&#39;)</text>
<text text-anchor="middle" x="252" y="-247.62" font-family="Arial, sans-serif" font-size="10.00">TypeORM Annotations</text>
</g>
<!-- ProductMapper&#45;&gt;ProductEntity -->
<g id="edge22" class="edge">
<title>ProductMapper&#45;&gt;ProductEntity</title>
<path fill="none" stroke="#7b1fa2" d="M209.64,-481.92C191.88,-465.2 175.73,-442.56 181,-418.25 190.89,-372.63 215.29,-324.33 232.73,-293.74"/>
<polygon fill="#7b1fa2" stroke="#7b1fa2" points="235.9,-295.25 237.89,-284.84 229.84,-291.74 235.9,-295.25"/>
<text text-anchor="middle" x="207.5" y="-421.05" font-family="Arial, sans-serif" font-size="9.00">maps from/to</text>
</g>
<!-- UserMapper&#45;&gt;User -->
<g id="edge23" class="edge">
<title>UserMapper&#45;&gt;User</title>
<path fill="none" stroke="#7b1fa2" d="M137.59,-482.11C148.46,-475.35 160.41,-468.56 172,-463.25 233.34,-435.14 250.34,-428.71 317,-418.25 338.21,-414.92 1071.83,-421.69 1090,-410.25 1126.33,-387.39 1145.13,-340.6 1154.49,-305.7"/>
<polygon fill="#7b1fa2" stroke="#7b1fa2" points="1157.95,-306.29 1156.99,-295.74 1151.16,-304.59 1157.95,-306.29"/>
<text text-anchor="middle" x="343.5" y="-421.05" font-family="Arial, sans-serif" font-size="9.00">maps from/to</text>
</g>
<!-- UserEntity -->
<g id="node26" class="node">
<title>UserEntity</title>
<polygon fill="#ab47bc" stroke="black" points="137.5,-284.62 24.5,-284.62 24.5,-237.62 137.5,-237.62 137.5,-284.62"/>
<text text-anchor="middle" x="81" y="-269.62" font-family="Arial, sans-serif" font-size="10.00">UserEntity</text>
<text text-anchor="middle" x="81" y="-258.62" font-family="Arial, sans-serif" font-size="10.00">@Entity(&#39;users&#39;)</text>
<text text-anchor="middle" x="81" y="-247.62" font-family="Arial, sans-serif" font-size="10.00">TypeORM Annotations</text>
</g>
<!-- UserMapper&#45;&gt;UserEntity -->
<g id="edge24" class="edge">
<title>UserMapper&#45;&gt;UserEntity</title>
<path fill="none" stroke="#7b1fa2" d="M95.16,-481.68C92.17,-435.33 86.27,-343.8 83.11,-294.84"/>
<polygon fill="#7b1fa2" stroke="#7b1fa2" points="86.6,-294.53 82.46,-284.78 79.61,-294.98 86.6,-294.53"/>
<text text-anchor="middle" x="118.5" y="-421.05" font-family="Arial, sans-serif" font-size="9.00">maps from/to</text>
</g>
</g>
</svg>
